<svg xmlns="http://www.w3.org/2000/svg" width="1000" height="1000">
 <g>
  <path stroke="null" fill="#ff9800" id="svg_2" d="m499.999817,118.753906c-210.574982,0 -381.245819,170.702759 -381.245819,381.246033c0,210.574951 170.670837,381.246155 381.245819,381.246155c210.543274,0 381.246216,-170.671204 381.246216,-381.246155c0,-210.543274 -170.702942,-381.246033 -381.246216,-381.246033z"/>
  <path stroke="null" fill="#ffffff" id="svg_1" d="m367.092773,690.283142c-26.61734,0 -48.265778,-22.587219 -48.265778,-50.457947c0,-27.737244 21.648438,-50.548523 48.265778,-50.548523c26.706299,0 48.264221,22.811279 48.264221,50.548523c0,27.870728 -21.557922,50.457947 -48.264221,50.457947zm121.199799,-0.133423c0,-47.616089 -17.662903,-92.4776 -49.676453,-126.057495c-32.056335,-33.579895 -74.590759,-52.160889 -119.811279,-52.160889l0,-72.889465c131.877838,0 239.287506,112.626587 239.287506,251.107849l-69.799774,0zm123.236176,0c0,-169.510132 -131.42984,-307.454407 -292.723907,-307.454407l0,-72.978455c199.776215,0 362.390289,170.739502 362.390289,380.432861l-69.666382,0z"/>
 </g>
</svg>